<?xml version="1.0" ?><!DOCTYPE svg  PUBLIC '-//W3C//DTD SVG 1.1//EN'  'http://www.w3.org/Graphics/SVG/1.1/DTD/svg11.dtd'><svg enable-background="new 0 0 48 48" height="48px" id="Layer_1" version="1.1" viewBox="0 0 48 48" width="48px" xml:space="preserve" xmlns="http://www.w3.org/2000/svg" xmlns:xlink="http://www.w3.org/1999/xlink"><g><path d="M30.083,17.269c-0.528,0-1.019,0.143-1.447,0.384l-0.001,0c-0.134,0.076-0.263,0.159-0.384,0.253   L28.247,17.9l-0.045,0.038c-0.019,0.015-0.036,0.03-0.054,0.045l-0.287,0.241c-0.625,0.472-1.548,1.197-2.472,2.003   c-0.014,0.011-0.025,0.018-0.04,0.03c-0.979,0.83-1.816,0-1.816,0l-2.455-2.296l-0.003,0.006c-0.673-0.715-1.62-1.167-2.68-1.167   c-2.036,0-3.688,1.651-3.688,3.688c0,0.872,0.315,1.663,0.821,2.294l-0.014,0.006c0,0,2.249,2.71,4.559,4.726   c0.005,0.004,0.009,0.006,0.014,0.01c2.266,2.176,4.287,3.453,4.287,3.453c5.719-3.719,8.332-9.135,8.332-9.135   S32.7,21.84,32.698,21.84c0.265-0.451,0.427-0.969,0.427-1.529C33.125,18.631,31.763,17.269,30.083,17.269z" fill="#231F20"/><path d="M24,0C10.745,0,0,10.745,0,24s10.745,24,24,24s24-10.745,24-24S37.255,0,24,0z M36.042,20.779   c0,0-0.002,0.011-0.005,0.022c-0.084,0.695-0.288,1.353-0.588,1.954c-0.006,0.018-0.014,0.038-0.021,0.055   c-0.161,0.43-1.464,3.576-6.565,8.205c-1.299,1.078-2.796,2.174-4.488,3.164c-1.424-0.994-2.769-1.918-4.006-2.793   c-1.078-0.764-3.816-3.527-5.521-5.283c-1.17-1.193-1.747-2.178-1.973-2.619c-0.037-0.083-0.083-0.168-0.119-0.251   c-0.532-0.922-0.842-1.99-0.842-3.131c0-0.006,0.001-0.013,0.001-0.02c0-0.005-0.001-0.01-0.001-0.015   c0-0.63,0.098-1.238,0.276-1.81c0.788-2.569,3.178-4.437,6.005-4.437c1.876,0,3.544,0.835,4.693,2.14   c0.019,0.016,0.035,0.018,0.056,0.039c0.221,0.229,0.536,0.619,0.814,0.974h0.001c0,0,0.621,0.688,1.1,0   c0.016-0.022,0.024-0.024,0.038-0.042c1.062-1.738,2.96-2.907,5.146-2.907c3.338,0,6.043,2.706,6.043,6.043   c0,0.241-0.018,0.478-0.046,0.711C36.041,20.779,36.042,20.779,36.042,20.779z" fill="#231F20"/></g></svg>